<?xml version="1.0" standalone="no"?>
<!DOCTYPE svg PUBLIC "-//W3C//DTD SVG 20010904//EN"
 "http://www.w3.org/TR/2001/REC-SVG-20010904/DTD/svg10.dtd">
<svg version="1.0" xmlns="http://www.w3.org/2000/svg"
 width="100.000000pt" height="100.000000pt" viewBox="0 0 100.000000 100.000000"
 preserveAspectRatio="xMidYMid meet">
<metadata>
Created by potrace 1.11, written by Peter Selinger 2001-2013
</metadata>
<g transform="translate(0.000000,100.000000) scale(0.100000,-0.100000)"
fill="#000000" stroke="none">
<path d="M190 920 c0 -5 -7 -7 -14 -4 -8 3 -22 0 -31 -8 -58 -47 -105 -94
-105 -105 0 -7 -5 -13 -11 -13 -5 0 -8 -4 -4 -9 3 -5 1 -12 -5 -16 -5 -3 -10
-44 -10 -91 0 -71 4 -94 27 -142 14 -31 37 -71 50 -88 13 -17 23 -34 23 -38 0
-9 208 -216 218 -216 4 0 15 -8 24 -17 8 -10 38 -34 66 -53 28 -19 51 -39 52
-43 0 -5 5 -5 10 -2 6 3 10 1 10 -4 0 -22 28 -10 88 36 61 48 308 283 297 283
-4 0 9 19 28 43 18 23 46 67 61 98 26 52 28 64 25 154 -3 68 -8 100 -17 103
-6 2 -10 7 -7 11 7 12 -63 89 -88 97 -12 4 -25 12 -29 17 -8 14 -141 22 -165
11 -10 -4 -21 -8 -24 -8 -20 -3 -89 -46 -116 -73 l-32 -31 -43 32 c-77 57
-150 86 -217 86 -34 0 -61 -4 -61 -10z"/>
</g>
</svg>
